<?xml version="1.0" encoding="utf-8"?>
<!-- Generator: Adobe Illustrator 19.2.1, SVG Export Plug-In . SVG Version: 6.00 Build 0)  -->
<svg version="1.1" id="Gothic_BG" xmlns="http://www.w3.org/2000/svg" xmlns:xlink="http://www.w3.org/1999/xlink" x="0px" y="0px"
	 width="124.2px" height="191.7px" viewBox="0 0 124.2 191.7" style="enable-background:new 0 0 124.2 191.7;" xml:space="preserve"
	>
<style type="text/css">
	.st0{fill:#F2C57C;}
</style>
<path class="st0" d="M65.5,89.1c-1.2-0.4-1.7,0.1-2.5,1.1c0,0,0,0.8,2,0.9C66.9,91.2,66.6,89.6,65.5,89.1z M89.2,86.6
	c0.2-0.6-5.8-1.2-13,4.7c-7.3,5.9-9.9,16.1-10.3,19.1c-0.1,0.8,1.3-0.4,1.3-0.4c0.5-3.6,1.2-4.7,1.2-4.7c3.3-6.6,7.5-8.4,10.3-9.1
	c2.9-0.7,2.3,0.7,2.5,1.2c0.1,0.4,1.7,1.3,0.8-1.8c-0.9-3.1-6-1.9-6-1.9c7.1-6.5,11.8-5.5,12.4-5.7C88.9,87.8,89.2,86.6,89.2,86.6z
	 M63.4,66.7c1-1.4,0.3-2.8-1.2-2.8c-1.5,0-2.8,1.2-1.8,2.7C61.5,68.1,62.1,68.5,63.4,66.7z M62.2,71.3c-1,0-1,0.9-0.1,2.1
	C62.2,73.4,63.7,71.3,62.2,71.3z M80.3,102.5c0.7-1.1,1.9-1.1,2.8-1.3c0.9-0.2,0.7-0.8-0.1-1.7c-0.2-0.3-0.2-0.3-2.1,0
	c-1.9,0.3-3.3,2.7-2.6,3C79,102.9,79.6,103.6,80.3,102.5z M65.1,61.7c0.8-0.5-0.3-1.9-0.6-1.7c-1.2,0.6-2.9,0.8-3.9,0.2
	c-0.9-0.6-2.5,0.6-1.3,1.6C60.5,62.8,63.2,63,65.1,61.7z M60.2,94.5c1.1,1.1,1.3,1.3,2,1.3c0.7,0,2.2-1.2,2.2-1.7
	c0-0.5,0.4-2.6-2.3-2.6C60.3,91.5,59.1,93.4,60.2,94.5z M58.8,89.5c-1.2,0.4-1.5,2,0.5,2c2,0,2-0.9,2-0.9
	C60.5,89.6,60,89.1,58.8,89.5z M56.9,79.7c0,0-0.4,2.7-1.5,4.1c-1.1,1.4,2.5,1.4,3.2,1.2c0,0,1.4,2.6,3.6,3.2c0,0,2.3-1.1,3.3-3.2
	c0,0,4.3,0.2,2.9-1.8c0,0-0.7-3-1.6-4.3c-0.9-1.3-3.2-3.5-4.4-3.5C61.1,75.4,58.2,77.1,56.9,79.7z M67.5,91.3
	c-1.3,0.5-2.4,0.7-2,1.7c0.3,1-0.3,2,0.3,2.1c0.6,0.1,3.3-0.8,3-1.9C68.5,92.2,68.1,91.1,67.5,91.3z M65.2,65.6
	c-0.4-0.1,0,0.2,0,0.2c1.1,0.8,3.4,0.4,3.4,0.4c4.7-1,3.9-5.2,2-5.4C68.6,60.7,71,62.4,70,64C69,65.7,66.4,65.9,65.2,65.6z
	 M46.5,60.8c1.7-0.9-1.6-1.4-3.5,1.5c-2,2.9,1.7,7.6,8.6,8.4c0,0,5.8,0,8.1-2c0,0,0.2-0.8-0.6-0.4c-1.5,0.7-4.5,1.2-6.2-0.4
	c-1.7-1.6-2.2-3.7-3.8-2.4c0,0-0.4,0.1-0.5-0.4c-0.2-0.4-1.8-0.6-2.2,0.2c-0.4,0.8-1.4,0.3-1.5-0.7C44.8,63.8,44.8,61.7,46.5,60.8z
	 M32.9,69.2c-1.3,1.8-2.4,3.6,1.5,6.7c0,0-2.4,0.5-1.1,1.9c1.3,1.4,5.3,1.6,9.6,0.9c0,0-3.5,2.9,2.9,2.6c0,0,4.4-0.3,8.3-4.6
	c0,0,1.1-1,1.2,0.1c0.2,1.1,1.8,0.4,2.6-1.4c0.8-1.8,0.9-1.1,1.2-0.8c0.3,0.2,0.6-0.1,1.1-1.8c0.5-1.7,0.3-2.2-0.1-1.9
	c-1.2,0.8-10.2,5.1-17.6,4.8c-7.3-0.3-9.7-3.7-9.2-5.2C34,69,34.1,67.5,32.9,69.2z M35.4,101.2c0.5,0.6,2.7,1.8,4.2,0.8
	c1.4-1.1,0.6-1.8,0-2.1C39,99.6,39,100,39,100c-0.4,0.9-0.9,1.1-2.2,0.5C35.5,99.9,34.9,100.6,35.4,101.2z M30.9,99.7
	c0.5,0.4,1-0.1,1.6-0.4c0.6-0.3,0.9-0.5,1.4,0.2c0.5,0.7,0.9,0.4,0.9,0.4c0.5-0.8,0.5-1-0.2-1.8c-0.7-0.8-1.8-1.7-3.5,0
	c0,0-0.3,0.4,0.4,0.5C32.2,98.7,30.4,99.4,30.9,99.7z M31.7,103.9c1.9-0.1,1.3-0.7,2.1,0.1c0.7,0.8,1.1-0.1,1.7-0.7
	c0.6-0.6,0.6-0.7,0.5-0.8c-1.2-1.2-2.2-2.2-3.5-1.3c-1.3,0.9-1.1,1.8-2.1,1.7C29.3,102.8,29.8,104,31.7,103.9z M78,65
	c-0.4-0.8-2-0.6-2.2-0.2c-0.2,0.4-0.5,0.4-0.5,0.4c-1.7-1.2-2.1,0.8-3.8,2.4c-1.7,1.6-4.7,1.1-6.2,0.4c-0.8-0.4-0.6,0.4-0.6,0.4
	c2.4,2,8.1,2,8.1,2c6.9-0.9,10.5-5.5,8.6-8.4c-2-2.9-5.2-2.4-3.5-1.5c1.7,0.9,1.7,3,1.6,3.9C79.4,65.3,78.4,65.8,78,65z M81.6,75.2
	c-7.3,0.3-16.4-3.9-17.6-4.8c-0.4-0.3-0.6,0.2-0.1,1.9c0.5,1.7,0.9,2.1,1.1,1.8c0.3-0.2,0.5-1,1.2,0.8c0.8,1.8,2.4,2.5,2.6,1.4
	c0.2-1.1,1.2-0.1,1.2-0.1c3.9,4.3,8.3,4.6,8.3,4.6c6.4,0.3,2.9-2.6,2.9-2.6c4.3,0.7,8.3,0.5,9.6-0.9c1.3-1.4-1.1-1.9-1.1-1.9
	c3.9-3.2,2.8-5,1.5-6.7c-1.2-1.7-1.1-0.3-0.6,1.2C91.3,71.5,88.9,74.9,81.6,75.2z M53.7,61.2c-1.9,0.2-2.7,4.4,2,5.4
	c0,0,2.3,0.4,3.4-0.4c0,0,0.4-0.3,0-0.2c-1.2,0.3-3.8,0.1-4.8-1.5C53.3,62.8,55.6,61,53.7,61.2z M23.1,90.5c5.3,0.8,9.5,2.7,11.4,6
	c0,0,2.3,2.5,1.5,0.6c-1.1-2.3-2.9-6.2-8.8-10.1c-5.9-3.9-10.9-5.2-9.5-2.8c0,0,1.5,1.4-1.3,0.9c0,0-6.5,0.2-5.8,2.4
	c0,0,2,1.2,0.2,1.5c-1.8,0.3-6.9,3.6-3.8,9.3c0,0,1.5,1.3,2.7,1.7c1.3,0.3-3.7-1.5-1.8-5.2C9.9,91.1,17.9,89.7,23.1,90.5z
	 M55.4,51.5c0.5,2.1,2.6,2.3,4.1,1.5c0,0,0.5,4.5,2.3,5.5l0,0.2c0.1,0,0.2-0.1,0.3-0.1c0.1,0,0.1,0,0.2,0l0-0.1
	c1.8-1,2.3-5.5,2.3-5.5c1.4,0.8,3.5,0.5,4.1-1.5c0.5-2.1-3.9-7.7-3.9-7.7s0.8-1.3,0-1.2c-0.8,0.1-1.3,0.3-2.6,0.2l0-0.1
	c-1.5,0-1.9-0.1-2.7-0.2c-0.8-0.1,0,1.2,0,1.2S54.9,49.4,55.4,51.5z M87.4,98.5c-0.3-0.2-0.8-0.1-0.8-0.1c-0.9,0.3-0.3-0.1-1.1-0.2
	c-0.8-0.1-0.3,1.6,0.9,1.4C87.6,99.5,87.8,98.7,87.4,98.5z M66.7,18.6c0,0-2.2,0.9-0.8,3.6c0,0-1.7,2.5,1.9,4.2
	c3.6,1.7,6.5,8.8,1.5,13.1c0,0-1,1.6,1.2,0.4c0,0,2.2,0.8,4.6-4.1c2.4-4.9,0.2-11.5-5.1-16.5c0,0-6-6.4,0.6-9.9
	C70.7,9.3,64.6,9.5,66.7,18.6z M85.4,40.2c-0.5-0.6-3.1-0.5-3.1-0.5c1-1-0.1-2.6-1.1-2.3c-1.1,0.3-5.6,2.8-6.9,3.7
	c-1,0.8,1.7,0.9,1.7,0.9c7.5,0.1,12.7,3.6,12.7,3.6c0.7-1.1-0.9-0.3-1.1-2.1c-0.2-1.8-1.8-2-1.8-2C86,41.2,85.9,40.8,85.4,40.2z
	 M86.5,156.2c-2.5,0.9,0.5,1.6,0.5,1.6c5-2,4.2-10.1-4.6-10.4c-8.7-0.2-13.3,4.9-14.6,6.9c-0.6,0.9,0.5,0.6,0.5,0.6
	c2-1.7,1.5-1.1,3.5-2.1c2-1,3.7,0.6,4.7-0.1c1-0.7-1.3-2.1,1.3-1.1c2.6,1,5.7-0.6,4.9-1.6c-0.7-0.9-0.2-1.2,0.2-1
	c0.4,0.2,2.1,1.7,2.7,0.9c0.6-0.8,1.3,0.2,1.3,0.2C90.4,154.2,86.5,156.2,86.5,156.2z M76.4,36.6c0,0,0.1,1.2,1.8-0.7
	c1.8-1.9,4.8-4.1,5-9.2c0,0,0.3-0.6-0.8-0.3c-1.1,0.3,0-1.8-0.2-2.8c-0.2-1.1-0.9-1.2-1.9-1.3c-3.1-0.4,1-5-0.5-3.9
	c-1.8,1.3-5.7,3-2.7,9.6C77.1,27.9,79.5,32.8,76.4,36.6z M61.1,152.5c-0.8-2.7-3-14.1-13.8-18.3c0,0-0.9-0.3,0.3,2.1
	c0,0,0.4,0.4-1.6-0.1c-2-0.6-11.9,0.1-9.4,3.5c0,0,2.2,1.9,1.8,0.3c0,0-2.2-1,0.8-1.7c3-0.7,13-0.1,18.1,7.9c0,0,1.9,2.7,3,7.1
	C60.3,153.2,61.7,154.4,61.1,152.5z M46.5,152.1c2.6-1,0.3,0.4,1.3,1.1c1,0.7,2.7-0.9,4.7,0.1c2,1,1.5,0.4,3.5,2.1
	c0,0,1.1,0.3,0.5-0.6c-1.3-2-5.9-7.1-14.6-6.9c-8.7,0.2-9.5,8.4-4.6,10.4c0,0,3-0.7,0.5-1.6c0,0-3.9-2-0.5-5.9c0,0,0.7-1,1.3-0.2
	c0.6,0.8,2.3-0.7,2.7-0.9c0.4-0.2,1,0.1,0.2,1C40.8,151.5,43.8,153.1,46.5,152.1z M66.1,158.5c0.9,0.4,3.3-2.6,0.1-2.2
	C64.9,156.5,65.3,158.1,66.1,158.5z M58.1,156.7c-3.2-0.4-0.8,2.6,0.1,2.2C59,158.5,59.3,156.8,58.1,156.7z M66.9,145.8
	c5.1-8,15-8.6,18.1-7.9c3,0.7,0.8,1.7,0.8,1.7c-0.5,1.6,1.8-0.3,1.8-0.3c2.5-3.3-7.4-4-9.4-3.5c-2,0.6-1.6,0.1-1.6,0.1
	c1.2-2.4,0.3-2.1,0.3-2.1C66.2,138,64,149.4,63.2,152.1c-0.6,1.9,0.8,0.7,0.8,0.7C65,148.4,66.9,145.8,66.9,145.8z M59.6,7.7
	c1.2,0.8,0.9,3.9,1.9,4.9c1,1-0.1,0.5-0.3,0.9c-0.2,0.4-0.7,2.7,1,3.4v-0.4l0,0.4c1.8-0.7,1.3-3,1-3.4c-0.2-0.4-1.3,0.1-0.3-0.9
	c1-1,0.6-4.1,1.9-4.9C65.9,7,67.6,6.7,66.7,6c-0.9-0.7-3.1,0.1-3.1,0.1c0-2.1-1.1-4.2-1.4-5.6l0-0.6c0,0.1,0,0.2-0.1,0.4
	c0-0.1,0-0.2,0-0.3l0,0.5c-0.3,1.4-1.4,3.5-1.4,5.6c0,0-2.3-0.8-3.1-0.1C56.6,6.6,58.3,6.9,59.6,7.7z M62.1,182
	c-2,0-3.1,2.6-0.3,3.4C64.6,186.2,64.8,182,62.1,182z M61.9,187.2c-1,0.9-2.4,4.3-0.2,4.5c0,0,2.9-0.2,0.4-4.5H61.9z M69.2,175.1
	c-5.3-4-6.1-12.3-6.5-13.8l-1.1,0c-0.3,1.4-1.2,9.8-6.5,13.8c0,0-4.1,2.2-6.9-0.9c0,0,0.4,3.2,4.4,3c0,0-1.1,2.3,1.6,1.5
	c2.6-0.8,0.9,0,2.6,1c1.7,1,2.2-0.9,3.3-0.8c1.1,0.1,1,1.3,2.1,1.3l-0.2,0c1.1,0,0.9-1.2,2.1-1.3c1.1-0.1,1.6,1.8,3.3,0.8
	c1.7-1,0-1.8,2.6-1c2.6,0.8,1.6-1.5,1.6-1.5c4,0.2,4.4-3,4.4-3C73.2,177.3,69.2,175.1,69.2,175.1z M54.2,19.6
	c-5.2,5-7.5,11.7-5.1,16.5c2.4,4.9,4.6,4.1,4.6,4.1c2.3,1.2,1.2-0.4,1.2-0.4c-5.1-4.3-2.1-11.5,1.5-13.1c3.6-1.7,1.9-4.2,1.9-4.2
	c1.4-2.7-0.8-3.6-0.8-3.6c2.2-9.1-4-9.3-4-9.3C60.2,13.2,54.2,19.6,54.2,19.6z M41,27.1c0.2,5.2,3.3,7.4,5,9.2
	c1.8,1.9,1.8,0.7,1.8,0.7c-3.1-3.8-0.7-8.7-0.7-8.7c2.9-6.6-1-8.3-2.7-9.6c-1.5-1.1,2.7,3.5-0.5,3.9c-1,0.1-1.7,0.2-1.9,1.3
	c-0.2,1.1,0.9,3.1-0.2,2.8C40.7,26.5,41,27.1,41,27.1z M48.3,42.4c0,0,2.7-0.1,1.7-0.9c-1.3-1-5.8-3.5-6.9-3.7
	c-1.1-0.3-2.2,1.3-1.1,2.3c0,0-2.6-0.1-3.1,0.5c-0.5,0.6-0.6,1-0.3,1.3c0,0-1.6,0.2-1.8,2c-0.2,1.8-1.8,0.9-1.1,2.1
	C35.6,46,40.8,42.4,48.3,42.4z M70.6,130.6c-2.4-0.7-3.8,1.5-4.4,1c-0.6-0.5-0.3-2.7-0.5-2.9c-0.1-0.1-0.8,0.9-2,1.4
	c-1.1,0.5-0.8-0.4-1.8-0.4v0c-0.8,0-0.6,0.9-1.7,0.4c-1.1-0.5-1.8-1.6-2-1.4c-0.1,0.1,0.1,2.4-0.5,2.9c-0.6,0.5-2.1-1.7-4.4-1
	c-2.4,0.7,0.8,0.1,2.9,2.2c2.1,2.1,1.3,2,0.3,3.1c0,0-0.6,0.4,1.1,3.8c1.7,3.4,4.1,8.1,4.2,10.2l0-0.6l0,0.6
	c0.1-2.1,2.5-6.8,4.2-10.2c1.7-3.4,1.1-3.8,1.1-3.8c-1-1.1-1.7-1,0.3-3.1C69.8,130.7,73,131.2,70.6,130.6z M62.2,22.6
	C62.1,22.6,62.1,22.6,62.2,22.6L62.2,22.6c-0.8,0.6-0.9,1.9-1.2,3.4c-0.3,1.6-5.2,5.4-5.6,9.8c-0.4,4.4,2.8,1.9,3.5,2.8
	c0.6,0.9,1.1,1.8,3.4,1.8v-0.1c2.2-0.1,2.6-1,3.3-1.8c0.6-0.9,3.9,1.6,3.5-2.8c-0.4-4.4-5.3-8.2-5.6-9.8
	C63,24.4,62.9,23.2,62.2,22.6L62.2,22.6C62.2,22.6,62.2,22.6,62.2,22.6z M7.4,80c-0.7,0.6,0.9,3.4,3.3,1.8c2.4-1.6,7-1.1,9.7-0.5
	c0,0-1.4-1.7-3.3-3c-2-1.4-5.7-2.9-5.7-2.9C10.8,75.6,12,77,12,77c-2.5-0.3-5.4,1-6.9,1.5C3.6,79.1,0,80.8,0,80.8
	C3.5,80.8,8.2,79.4,7.4,80z M10.8,78.3c0,0,0.8,0,1.1-0.3c0.3-0.3,2.8,0.5,3.7,0.9c0.9,0.5,0.7,0.6,0.7,0.6c-1.7-0.5-3.2-1-7.5-0.6
	C8.8,78.9,7.9,78.4,10.8,78.3z M91.9,124.5c0.6-0.9,0.5-0.7,1.3-0.6c0.8,0.1,3.4,0,4.7-2.1c0,0,0-0.3-1.1,0.1
	c-1.1,0.4-3.5-0.8-4.5-1.4c-0.9-0.6-3.3-1.3-4.3-1.2c-1,0.1-1.7-0.1-1.8,0.1c0,0,0,0.1,0,0.2c-0.1,0.4-0.4,0.8,0.3,0.9
	c0.8,0.1,2.6,0.9,3.1,2.4C90.1,124.5,91.3,125.4,91.9,124.5z M73.4,43.9c0,0-0.8,0.4-0.1,0.6c0.7,0.2,0.7-0.3,2.5,0.4
	c1.8,0.7,1.3,3,3.1,5.1c1.9,2.1,2.9,0.4,3.3,0.2c0.3-0.2,1.8,1.4,1.8,1.4c2.1,0.6,1.2-1.4,0.1-3.3c-1.1-1.8,1.4-0.5,1.4-0.5
	c2.5,3.2,3.5,3.2,3.5,3.2c6.1,2.2,9.7-4.1,9.7-4.1c-3,2.7-8.6,1.4-13.3-1.4C80.7,42.8,75.1,42.6,73.4,43.9z M49.9,54.7
	c1.8,6.2,6.6,6.3,6.4,5.8c-0.2-0.5-3.1-2.9-2.1-2.8c1,0.1,2.6,0.7,0.8-1.5c-1.8-2.2-2.6-4.6-2.1-6.1c0,0,1.9,0.7,1.5-1.1
	c-0.4-1.7-0.1-3.5,1.5-4.5c1.5-1-1.1-0.4-1.1-0.4C52.1,46.3,48.2,48.5,49.9,54.7z M69.4,43.7c0,0-2.7-0.6-1.1,0.4
	c1.5,1,1.9,2.7,1.5,4.5c-0.4,1.7,1.5,1.1,1.5,1.1c0.6,1.4-0.2,3.9-2.1,6.1c-1.8,2.2-0.2,1.6,0.8,1.5c1-0.1-1.9,2.3-2.1,2.8
	c-0.2,0.5,4.6,0.4,6.4-5.8C76.1,48.1,72.1,45.9,69.4,43.7z M90.4,86.2c-3.3,4.8-4.5,9.3-4.3,10.9c0,0,0.5,0.5,0.7,0.3
	c0.2-0.3,0.4-2.5,2.2-5.5c1.9-3.1,8.1-6.8,11.8-10.9c3.7-4.1,3.4-7.3,1.9-7.7c-1.5-0.4-0.4-0.4-1.7-3.2c-1.3-2.8-4.4-2.7-3.3-2.2
	c1,0.5,1.9,2.1,1.6,5.7C99.1,77.1,93.7,81.4,90.4,86.2z M35.3,51.5c0,0,1,0,3.5-3.2c0,0,2.5-1.3,1.4,0.5c-1.1,1.8-2,3.8,0.1,3.3
	c0,0,1.4-1.7,1.8-1.4c0.3,0.2,1.4,2,3.3-0.2c1.9-2.1,1.3-4.3,3.1-5.1c1.8-0.7,1.8-0.2,2.5-0.4c0.7-0.2-0.1-0.6-0.1-0.6
	c-1.7-1.3-7.3-1.1-11.9,1.7c-4.6,2.8-10.3,4.1-13.3,1.4C25.6,47.4,29.2,53.7,35.3,51.5z M26.6,68.2c1-0.5-2-0.6-3.3,2.2
	c-1.3,2.8-0.2,2.8-1.7,3.2c-1.5,0.4-1.8,3.7,1.9,7.7c3.7,4.1,9.9,7.8,11.8,10.9c1.9,3.1,2,5.3,2.2,5.5c0.2,0.3,0.7-0.3,0.7-0.3
	c0.2-1.5-1-6.1-4.3-10.9c-3.3-4.8-8.7-9.2-8.9-12.8C24.7,70.3,25.5,68.8,26.6,68.2z M69.7,170.4c5.9,3.6,9.9-0.3,10.1-3.2
	c0.2-2.8-3-3.6-3.7-2.1c-0.7,1.5,1.3,2,1.3,2c1.3,2-1.2,3.4-6.1,2c-4.9-1.4-4.6-6.7-4.6-8.2c0-0.6-0.9-0.1-0.9-0.1
	C65.5,168.4,69.7,170.4,69.7,170.4z M31.1,124.3c0.8-0.1,0.7-0.3,1.3,0.6c0.6,0.9,1.7-0.1,2.2-1.6c0.5-1.5,2.3-2.3,3.1-2.5
	c0.7-0.1,0.4-0.5,0.3-0.9c0-0.1,0-0.1,0-0.2c-0.1-0.2-0.8-0.1-1.8-0.1c-1-0.1-3.4,0.7-4.3,1.2c-0.9,0.6-3.4,1.8-4.5,1.4
	c-1.1-0.4-1.1-0.1-1.1-0.1C27.7,124.3,30.3,124.4,31.1,124.3z M54.5,170.8c0,0,4.2-2,3.8-9.6c0,0-0.9-0.5-0.9,0.1
	c0,1.5,0.2,6.8-4.6,8.2c-4.9,1.4-7.3,0-6.1-1.9c0,0,2-0.5,1.3-2c-0.7-1.5-3.9-0.7-3.7,2.1C44.6,170.5,48.6,174.4,54.5,170.8z
	 M124.2,80.4c0,0-3.6-1.7-5.1-2.2c-1.5-0.5-4.4-1.9-6.9-1.5c0,0,1.2-1.3,0.6-1.7c0,0-3.7,1.5-5.7,2.9c-2,1.4-3.3,3-3.3,3
	c2.7-0.6,7.3-1.1,9.7,0.5c2.4,1.6,4-1.1,3.3-1.8C116.1,79,120.8,80.4,124.2,80.4z M115.5,78.5c-4.3-0.4-5.8,0.1-7.5,0.6
	c0,0-0.2-0.1,0.7-0.6c0.9-0.5,3.3-1.3,3.7-0.9c0.3,0.3,1.1,0.3,1.1,0.3C116.3,78.1,115.5,78.5,115.5,78.5z M31,109.9
	c3.3,0.4,5.8-2.1,5.3-2.9c-0.6-0.8-1.9-0.6-1.9-0.6c0.1,0.9-0.8,1.5-0.8,1.5c-1.7,1.4-6,0.7-10.1-4.3c-4.1-5,0.2-9.9,1.1-11.5
	c0.3-0.6-0.5-0.4-1-0.7c-0.5-0.2-0.2,0-1.3,1.3c-1.1,1.3-4,4-1.9,9.2C22.5,107.2,27.7,109.5,31,109.9z M36.2,105.9
	c0.9,0.2,0.4,1.8,1.8,1.9c1.4,0.1,1-1.8,1.7-1.7c0.6,0.2,0.6,0.1,0.1-1.1c-0.5-1.2-0.1-2.1-1.5-2.2c-0.5-0.1-1,0.1-1.3,0.3
	c-0.3,0.3-0.4,1.1-1,1.7C35.4,105.4,35.4,105.7,36.2,105.9z M55.4,93.6c-0.3,1,2.4,2,3,1.9c0.6-0.1,0-1.1,0.3-2.1
	c0.3-1-0.7-1.3-2-1.7C56.2,91.5,55.7,92.6,55.4,93.6z M62.1,158.3c0,0,3.2-0.1,0.2-3.2l-0.2,0C60.8,156.5,59.8,158.3,62.1,158.3z
	 M103.9,101.6c2.1-5.2-0.8-7.9-1.9-9.2c-1.1-1.3-0.9-1.6-1.3-1.3c-0.5,0.2-1.3,0.1-1,0.7c1,1.6,5.3,6.5,1.1,11.5
	c-4.1,5-8.4,5.7-10.1,4.3c0,0-0.9-0.6-0.8-1.5c0,0-1.3-0.2-1.9,0.6c-0.6,0.8,1.9,3.3,5.3,2.9C96.6,109.1,101.7,106.8,103.9,101.6z
	 M86.2,107.4c1.4-0.1,0.9-1.7,1.8-1.9c0.9-0.2,0.9-0.5,0.3-1.1c-0.6-0.6-0.7-1.4-1-1.7c-0.3-0.3-0.9-0.4-1.3-0.3
	c-1.4,0.2-1.1,1.1-1.5,2.2c-0.5,1.2-0.5,1.3,0.1,1.1C85.2,105.5,84.9,107.5,86.2,107.4z M80.6,105.7c0.2,0.3,1,1.6,1.4,0.6
	c0.4-1,1.1-2.7,2.5-3.6c0,0,0.3-0.6-0.1-0.9c-0.4-0.4-0.2-0.4-0.5-0.4c-1.1,0-3,1.7-3.8,3.5C79.2,106.7,80.4,105.4,80.6,105.7z
	 M92.8,98.2c0.7-0.1,0.4-0.5,0.4-0.5c-1.7-1.7-2.8-0.8-3.5,0c-0.7,0.8-0.7,0.9-0.2,1.8c0,0,0.4,0.2,0.9-0.4c0.5-0.7,0.7-0.5,1.4-0.2
	c0.6,0.3,1.1,0.8,1.6,0.4C93.9,99,92,98.3,92.8,98.2z M90.5,103.6c0.7-0.8,0.2-0.2,2.1-0.1c1.9,0.1,2.4-1.1,1.4-1
	c-1,0.1-0.8-0.8-2.1-1.7c-1.3-0.9-2.2,0.1-3.5,1.3c-0.2,0.2-0.1,0.2,0.5,0.8C89.3,103.5,89.7,104.4,90.5,103.6z M113.3,88.6
	c-1.8-0.3,0.2-1.5,0.2-1.5c0.6-2.2-5.8-2.4-5.8-2.4c-2.7,0.5-1.3-0.9-1.3-0.9c1.4-2.4-3.5-1.1-9.5,2.8c-5.9,3.9-7.7,7.8-8.8,10.1
	c-0.9,1.8,1.5-0.6,1.5-0.6c1.9-3.3,6.2-5.1,11.4-6c5.3-0.8,13.3,0.6,15.2,4.3c1.9,3.7-3.1,5.5-1.8,5.2c1.3-0.3,2.7-1.7,2.7-1.7
	C120.2,92.2,115.1,88.9,113.3,88.6z M88.9,100.8c0.5-0.6-0.2-1.3-1.5-0.7c-1.3,0.6-1.8,0.4-2.2-0.5c0,0,0.1-0.4-0.5-0.1
	c-0.6,0.3-1.4,1.1,0,2.1C86.1,102.6,88.4,101.4,88.9,100.8z M48.1,91.7c-7.3-5.9-13.2-5.3-13-4.7c0,0,0.3,1.2,0.9,1.4
	c0.6,0.2,5.3-0.8,12.4,5.7c0,0-5.1-1.2-6,1.9c-0.9,3.1,0.7,2.3,0.8,1.8c0.1-0.4-0.4-1.9,2.5-1.2c2.9,0.7,7,2.5,10.3,9.1
	c0,0,0.7,1.1,1.2,4.7c0,0,1.4,1.2,1.3,0.4C58,107.8,55.3,97.6,48.1,91.7z M45.9,102.9c0.7-0.3-0.7-2.7-2.6-3c-1.9-0.3-1.9-0.3-2.1,0
	c-0.8,1-1,1.6-0.1,1.7c0.9,0.2,2.1,0.2,2.8,1.3C44.6,104,45.3,103.3,45.9,102.9z M62.1,124.8c0.2,0,0.4-3.3,0.7-6.7
	c0.3-3.4,2.4-15,4.3-16.5l-0.2,0c-2.1,0.8-6.5,1.4-9.6,0c0,0,3.9,10.2,4.1,16.7C61.6,124.7,61.9,124.8,62.1,124.8z M37.6,98.7
	c0,0-0.5-0.1-0.8,0.1c-0.3,0.2-0.1,1.1,1.1,1.2c1.2,0.1,1.7-1.5,0.9-1.4C37.9,98.6,38.5,99,37.6,98.7z M62.2,100.8
	c1.8,0.1,4.8-1.1,5.5-2c0.7-0.9,0.1-2.3-0.5-2.5c-0.6-0.2-2.2,1.2-4.9,1.3c-2.7,0.1-4.4-1.5-4.9-1.2c-1.1,0.6-1.2,2.5-0.8,3
	C57,99.9,60.4,100.6,62.2,100.8z M85.3,119.3c-0.3-5-7-4.3-7.9-4.1c-0.9,0.2-1.1-0.4,0.2-1.7c1.3-1.3,0.1-1.5,0.1-1.5
	c2.6-4.4,0.6-5.8-0.6-5.3c-1.3,0.5-2.1,2.3-4.2,2.7c-0.5,0.1,0-2.6-1.4-1.5c-5,3.9-6.2,14-7.7,19.7c-0.3,1.1,0.6,0.7,0.7-0.3
	c0.1-1.1,1.8-4.7,7.9-7.9s10.6-0.9,11.3,1.7c0.6,2.6-2.2,3-2.2,3.3C81.4,124.7,85.6,124.3,85.3,119.3z M40.5,101.7
	c-0.3,0-0.1,0-0.5,0.4c-0.4,0.4-0.1,0.9-0.1,0.9c1.4,0.9,2.1,2.6,2.5,3.6c0.4,1,1.1-0.2,1.4-0.6c0.2-0.3,1.4,0.9,0.6-0.8
	C43.5,103.5,41.5,101.7,40.5,101.7z M80,121.1c1-0.4,1.4-0.6,1.8-1.3c0,0-0.2,0.1-2.1,0.4c-1.8,0.3-4.7,2.1-5.7,2.7
	c-1,0.7,0,0-0.3-1.2c-0.3-1.2-1.3-1.6-1.3,0.4c-0.1,2-1.8,3.3-2.8,5.2s-0.4,1.9,2-1C74,123.3,79,121.5,80,121.1z M44.3,121.5
	c1,0.4,5.9,2.2,8.3,5.1c2.4,2.9,3,2.8,2,1c-1-1.8-2.7-3.2-2.8-5.2c-0.1-2-1-1.6-1.3-0.4c-0.3,1.2,0.7,1.9-0.3,1.2
	c-1-0.7-3.8-2.4-5.7-2.7c-1.8-0.3-2.1-0.4-2.1-0.4C42.9,120.9,43.3,121.1,44.3,121.5z M42.8,124.8c0-0.3-2.8-0.7-2.2-3.3
	c0.6-2.6,5.2-4.8,11.3-1.7c6.1,3.2,7.8,6.8,7.9,7.9c0.1,1.1,1,1.4,0.7,0.3c-1.5-5.6-2.6-15.8-7.7-19.7c-1.4-1.1-0.9,1.6-1.4,1.5
	c-2.1-0.5-3-2.2-4.2-2.7c-1.3-0.5-3.3,0.9-0.6,5.3c0,0-1.2,0.2,0.1,1.5c1.3,1.3,1.1,1.9,0.2,1.7c-0.9-0.2-7.6-0.9-7.9,4.1
	C38.6,124.6,42.8,125,42.8,124.8z"/>
</svg>
